# xmcd
#
# Track frame offsets:
#	150
#	14235
#	28288
#	44235
#	62155
#	79283
#	94313
#	108878
#	123385
#	136960
#
# Disc length: 2036 seconds
# Revision: 0
# Processed by: cddbd v1.5.2PL0 Copyright (c) Steve Scherf et al.
# Submitted via: dBpowerAMP V12.0
#
DISCID=9507f20a
DTITLE=Jerry And The Ruf-Nex - Oh! Lonesome Me
DYEAR=1993
DGENRE=Tejano
TTITLE0=Oh! Lonesome Me (Oh, Solo Estoy)
TTITLE1=Just One Time (Una Vez Mas)
TTITLE2=All Night Rodeo
TTITLE3=My Little Senorita (Mi Linda Señorita)
TTITLE4=Headed For A Heartbreak
TTITLE5=Gone, Gone, Gone (Se Fue)
TTITLE6=Girl On The Run
TTITLE7=Diesel Café
TTITLE8=Last Night In Old Mexico
TTITLE9=Country Saloon
EXTD=
EXTT0=
EXTT1=
EXTT2=
EXTT3=
EXTT4=
EXTT5=
EXTT6=
EXTT7=
EXTT8=
EXTT9=
PLAYORDER=
